# xmcd
#
# Track frame offsets:
#	182
#	13670
#	21482
#	31522
#	41802
#	53340
#	66687
#	77832
#	88050
#	103392
#	121610
#	136712
#	147282
#	160432
#
# Disc length: 2344 seconds
#
# Revision: 1
# Processed by: cddbd v1.5.1PL0 Copyright (c) Steve Scherf et al.
# Submitted via: audiograbber 1.83.01
#
DISCID=ba09260e
DTITLE=Diverse - The best of Country
DYEAR=1900
DGENRE=Country
TTITLE0=Kenny Rogers - Sleep comes easy
TTITLE1=Roy Drusky - Hello Walls
TTITLE2=Donna Fargo - Sticks and Stones
TTITLE3=Kenny Rogers - Where does Rosie go
TTITLE4=Dolly Parton - Making Believe
TTITLE5=Ferlin Husky - Fallen star
TTITLE6=Waylon Jennings - Big Mamou
TTITLE7=Willie Nelson - Broken Promises
TTITLE8=Kenny Rogers - For the good times
TTITLE9=Johnny Paycheck - Billy Jack Washburn
TTITLE10=Jeanne C. Riley - Harper Valley PTA
TTITLE11=Patsy Cline - Honky Tonk merry go round
TTITLE12=Donna Fargo - Daddy
TTITLE13=Kenny Rogers - My Washington woman
EXTD=
EXTT0=
EXTT1=
EXTT2=
EXTT3=
EXTT4=
EXTT5=
EXTT6=
EXTT7=
EXTT8=
EXTT9=
EXTT10=
EXTT11=
EXTT12=
EXTT13=
PLAYORDER=
